<?xml version="1.0" encoding="utf-8"?>
<!-- Generator: Adobe Illustrator 24.2.3, SVG Export Plug-In . SVG Version: 6.00 Build 0)  -->
<svg version="1.1" id="Layer_1" xmlns="http://www.w3.org/2000/svg" xmlns:xlink="http://www.w3.org/1999/xlink" x="0px" y="0px"
	 viewBox="0 0 560 190" style="enable-background:new 0 0 560 190;" xml:space="preserve">
<style type="text/css">
	.st0{display:none;fill:#0B0E17;}
	.st1{fill:url(#SVGID_1_);}
	.st2{fill:#0B0E17;}
	.st3{fill:url(#SVGID_2_);}
	.st4{fill:#F83AA2;}
</style>
<rect class="st0" width="560" height="190"/>
<g id="v1b__x28_simplified_x29_">
	
		<linearGradient id="SVGID_1_" gradientUnits="userSpaceOnUse" x1="-53.3216" y1="44.2894" x2="-14.9632" y2="82.4377" gradientTransform="matrix(1 0 -0.1051 1 72.5222 0)">
		<stop  offset="0" style="stop-color:#4DF8CE"/>
		<stop  offset="0.5297" style="stop-color:#84A1FD"/>
		<stop  offset="1" style="stop-color:#E3A5EE"/>
	</linearGradient>
	<path class="st1" d="M38.48,85.52c1.61,0,2.79,1.31,2.62,2.92c-0.17,1.61-1.62,2.92-3.23,2.92c-1.61,0-2.79-1.31-2.62-2.92
		S36.86,85.52,38.48,85.52z M38.69,55.7c-0.17,1.61,1,2.92,2.62,2.92c1.61,0,3.06-1.31,3.23-2.92c0.17-1.61-1-2.92-2.62-2.92
		S38.86,54.08,38.69,55.7z M36.97,72.07c-0.17,1.61,1,2.92,2.62,2.92c1.61,0,3.06-1.31,3.23-2.92c0.17-1.61-1-2.92-2.62-2.92
		S37.14,70.45,36.97,72.07z M40.52,38.29c-0.17,1.61,1,2.92,2.62,2.92c1.61,0,3.06-1.31,3.23-2.92c0.17-1.61-1-2.92-2.62-2.92
		S40.69,36.67,40.52,38.29z M20.31,85.52c1.61,0,2.79,1.31,2.62,2.92c-0.17,1.61-1.62,2.92-3.23,2.92s-2.79-1.31-2.62-2.92
		C17.24,86.83,18.69,85.52,20.31,85.52z M20.52,55.7c-0.17,1.61,1,2.92,2.62,2.92c1.61,0,3.06-1.31,3.23-2.92
		c0.17-1.61-1-2.92-2.62-2.92C22.13,52.77,20.69,54.08,20.52,55.7z M18.8,72.07c-0.17,1.61,1,2.92,2.62,2.92s3.06-1.31,3.23-2.92
		s-1-2.92-2.62-2.92C20.41,69.14,18.96,70.45,18.8,72.07z M22.35,38.29c-0.17,1.61,1,2.92,2.62,2.92s3.06-1.31,3.23-2.92
		c0.17-1.61-1-2.92-2.62-2.92C23.96,35.36,22.52,36.67,22.35,38.29z"/>
	<path class="st2" d="M97.02,88.06H59.08l5.15-49h13.01l-3.97,37.73H98.2L97.02,88.06z M133.99,80.5h-18.56l-3.21,7.56H98.67
		l22.88-49h15.04l12.64,49h-13.56L133.99,80.5z M131.62,69.16l-3.85-17.71l-7.52,17.71H131.62z M176.87,72.17h-10.21l-1.67,15.89
		h-13.01l5.15-49h27.34c10.6,0,15.76,6.23,14.71,16.24c-0.78,7.42-4.25,12.18-9.4,14.7l7.21,18.06h-14L176.87,72.17z M167.83,60.97
		h12.46c3.84,0,5.32-2.52,5.65-5.67c0.34-3.22-1.08-4.9-4.54-4.9h-12.46L167.83,60.97z M245.9,72.52
		c-1.24,11.76-9.59,16.59-24.69,16.59c-16.25,0-21.98-6.65-20.89-16.94h13.62c-0.48,4.55,3.78,5.81,9.16,5.81
		c5.16,0,8.34-0.98,8.62-3.71c0.35-3.29-3.41-3.08-14.22-5.25c-11.56-2.31-15.4-5.46-14.37-15.26c1.04-9.94,7.85-15.68,22.78-15.68
		c16.31,0,20.35,7.49,19.46,15.96h-13.23c0.35-3.36-2.57-4.83-7.56-4.83c-5.27,0-8.12,0.98-8.41,3.78
		c-0.35,3.36,4.39,3.64,10.89,4.48C238.91,59.08,247.2,60.13,245.9,72.52z M313.87,63.56c-1.97,18.76-15.26,25.55-27.72,25.55
		s-24.27-6.79-22.29-25.55c1.96-18.69,15.19-25.48,27.66-25.48S315.83,44.87,313.87,63.56z M300.64,63.56
		c0.93-8.89-2.73-14.28-10.3-14.28c-7.52,0-12.37,5.39-13.3,14.28c-0.94,8.96,2.77,14.35,10.3,14.35
		C294.9,77.91,299.7,72.52,300.64,63.56z M353.62,88.06h-37.94l5.15-49h13.01l-3.97,37.73h24.92L353.62,88.06z M403.62,72.52
		c-1.24,11.76-9.59,16.59-24.69,16.59c-16.25,0-21.98-6.65-20.89-16.94h13.62c-0.48,4.55,3.78,5.81,9.16,5.81
		c5.16,0,8.34-0.98,8.62-3.71c0.35-3.29-3.41-3.08-14.22-5.25c-11.56-2.31-15.4-5.46-14.37-15.26c1.04-9.94,7.85-15.68,22.78-15.68
		c16.31,0,20.35,7.49,19.46,15.96h-13.23c0.35-3.36-2.57-4.83-7.56-4.83c-5.27,0-8.12,0.98-8.41,3.78
		c-0.35,3.36,4.39,3.64,10.89,4.48C396.64,59.08,404.93,60.13,403.62,72.52z M457.32,63.56c-1.97,18.76-15.26,25.55-27.72,25.55
		s-24.27-6.79-22.29-25.55c1.96-18.69,15.19-25.48,27.66-25.48S459.29,44.87,457.32,63.56z M444.09,63.56
		c0.93-8.89-2.73-14.28-10.3-14.28c-7.52,0-12.37,5.39-13.3,14.28c-0.94,8.96,2.77,14.35,10.3,14.35
		C438.36,77.91,443.15,72.52,444.09,63.56z M508.54,39.06l-5.15,49h-13.78l-14.4-29.12l-3.06,29.12h-13.01l5.15-49h13.78
		l14.39,29.19l3.07-29.19H508.54z"/>
	<linearGradient id="SVGID_2_" gradientUnits="userSpaceOnUse" x1="141.4106" y1="191.7794" x2="426.2141" y2="-64.6588">
		<stop  offset="0" style="stop-color:#DBA0FC"/>
		<stop  offset="0.2033" style="stop-color:#4F75FD"/>
		<stop  offset="0.3626" style="stop-color:#D872FF"/>
		<stop  offset="0.3984" style="stop-color:#EDABF5"/>
		<stop  offset="0.5209" style="stop-color:#4DF8CE"/>
		<stop  offset="0.7687" style="stop-color:#84A1FD"/>
		<stop  offset="0.8949" style="stop-color:#E3A5EE"/>
		<stop  offset="1" style="stop-color:#EDE6BC"/>
	</linearGradient>
	<path class="st3" d="M434.97,38.08c12.46,0,24.32,6.79,22.36,25.48c-1.97,18.76-15.26,25.55-27.72,25.55
		c-12.46,0-24.27-6.79-22.29-25.55C409.27,44.87,422.5,38.08,434.97,38.08 M430.78,77.91c7.58,0,12.37-5.39,13.31-14.35
		c0.93-8.89-2.73-14.28-10.3-14.28c-7.52,0-12.37,5.39-13.3,14.28C419.54,72.52,423.26,77.91,430.78,77.91 M383.64,38.08
		c16.31,0,20.35,7.49,19.46,15.96h-13.23c0.35-3.36-2.57-4.83-7.56-4.83c-5.27,0-8.12,0.98-8.41,3.78
		c-0.35,3.36,4.39,3.64,10.89,4.48c11.85,1.61,20.14,2.66,18.84,15.05c-1.24,11.76-9.59,16.59-24.69,16.59
		c-16.25,0-21.98-6.65-20.89-16.94h13.62c-0.48,4.55,3.78,5.81,9.16,5.81c5.16,0,8.34-0.98,8.62-3.71
		c0.35-3.29-3.41-3.08-14.22-5.25c-11.56-2.31-15.4-5.46-14.37-15.26C361.9,43.82,368.7,38.08,383.64,38.08 M291.51,38.08
		c12.46,0,24.32,6.79,22.36,25.48c-1.97,18.76-15.26,25.55-27.72,25.55c-12.46,0-24.27-6.79-22.29-25.55
		C265.82,44.87,279.05,38.08,291.51,38.08 M287.33,77.91c7.58,0,12.37-5.39,13.31-14.35c0.93-8.89-2.73-14.28-10.3-14.28
		c-7.52,0-12.37,5.39-13.3,14.28C276.09,72.52,279.81,77.91,287.33,77.91 M225.91,38.08c16.31,0,20.35,7.49,19.46,15.96h-13.23
		c0.35-3.36-2.57-4.83-7.56-4.83c-5.27,0-8.12,0.98-8.41,3.78c-0.35,3.36,4.39,3.64,10.89,4.48c11.85,1.61,20.14,2.66,18.84,15.05
		c-1.24,11.76-9.59,16.59-24.69,16.59c-16.25,0-21.98-6.65-20.89-16.94h13.62c-0.48,4.55,3.78,5.81,9.16,5.81
		c5.16,0,8.34-0.98,8.62-3.71c0.35-3.29-3.41-3.08-14.22-5.25c-11.56-2.31-15.4-5.46-14.37-15.26
		C204.17,43.82,210.98,38.08,225.91,38.08 M508.54,39.06l-5.15,49h-13.78l-14.4-29.12l-3.06,29.12h-13.01l5.15-49h13.78l14.39,29.19
		l3.07-29.19H508.54 M333.85,39.06l-3.97,37.73h24.92l-1.18,11.27h-37.94l5.15-49H333.85 M184.47,39.06
		c10.6,0,15.76,6.23,14.71,16.24c-0.78,7.42-4.25,12.18-9.4,14.7l7.21,18.06h-14l-6.13-15.89h-10.21l-1.67,15.89h-13.01l5.15-49
		H184.47 M167.83,60.97h12.46c3.84,0,5.32-2.52,5.65-5.67c0.34-3.22-1.08-4.9-4.54-4.9h-12.46L167.83,60.97 M136.59,39.06l12.64,49
		h-13.56l-1.67-7.56h-18.56l-3.21,7.56H98.67l22.88-49H136.59 M120.25,69.16h11.36l-3.85-17.71L120.25,69.16 M77.25,39.06
		l-3.97,37.73H98.2l-1.18,11.27H59.08l5.15-49H77.25 M434.97,32.58c-8.12,0-15.44,2.39-21.17,6.91c-2.3,1.81-4.29,3.95-5.97,6.37
		c-0.73-2.34-1.91-4.44-3.51-6.22c-4.22-4.68-11.18-7.06-20.68-7.06c-21.56,0-27.27,11.21-28.25,20.61
		c-0.65,6.16,0.55,10.44,2.84,13.48h-0.18h-4.95l-0.49,4.62h-16.61l3.33-31.66l0.64-6.07h-6.11h-13.01h-4.95l-0.52,4.93l-0.5,4.77
		c-0.55-0.79-1.12-1.49-1.68-2.11c-4.98-5.53-12.68-8.57-21.67-8.57c-8.12,0-15.44,2.39-21.17,6.91
		c-6.77,5.34-10.9,13.46-11.95,23.49c-1.01,9.65,1.06,17.42,6.16,23.08c4.96,5.51,12.64,8.55,21.61,8.55c5.67,0,13.95-1.2,21.2-6.92
		c1.12-0.89,2.17-1.85,3.15-2.88l-0.28,2.68l-0.64,6.07h6.11h37.94h4.95l0.46-4.36c4.51,3.59,11.18,5.41,19.9,5.41
		c13.39,0,22.41-3.79,26.94-11.29c0.64,0.96,1.35,1.88,2.13,2.74c4.96,5.51,12.64,8.55,21.61,8.55c5.67,0,13.95-1.2,21.2-6.92
		c1.12-0.89,2.17-1.85,3.15-2.88l-0.28,2.68l-0.64,6.07h6.11h13.01h4.95l0.52-4.93l1.08-10.24l5.98,12.1l1.51,3.06h3.42h13.78h4.95
		l0.52-4.93l5.15-49l0.64-6.07h-6.11h-13.01h-4.95l-0.52,4.93l-1.08,10.27L483,36.63l-1.51-3.07h-3.42h-13.78h-4.95l-0.52,4.93
		l-0.5,4.77c-0.55-0.79-1.12-1.49-1.68-2.11C451.66,35.62,443.97,32.58,434.97,32.58L434.97,32.58z M430.78,72.41
		c-2.52,0-3.33-0.9-3.6-1.2c-1.12-1.25-1.57-3.83-1.23-7.08c0.45-4.27,2.17-9.36,7.83-9.36c2.55,0,3.36,0.9,3.62,1.2
		c1.11,1.23,1.55,3.79,1.21,7.01C437.97,69.24,435.33,72.41,430.78,72.41L430.78,72.41z M287.33,72.41c-2.52,0-3.33-0.9-3.6-1.2
		c-1.12-1.25-1.57-3.83-1.23-7.08c0.45-4.27,2.17-9.36,7.83-9.36c2.55,0,3.36,0.9,3.62,1.2c1.11,1.23,1.55,3.79,1.21,7.01
		C294.51,69.24,291.87,72.41,287.33,72.41L287.33,72.41z M225.91,32.58c-12.9,0-20.12,4.01-24.06,9.25
		c-0.49-0.76-1.03-1.48-1.64-2.15c-2.51-2.79-7.28-6.11-15.74-6.11h-27.34h-4.95l-0.52,4.93l-2.76,26.26l-6.98-27.06l-1.06-4.13
		h-4.26h-15.04h-3.5l-1.48,3.17l-16.14,34.56H98.2H79.39l3.33-31.66l0.64-6.07h-6.11H64.23h-4.95l-0.52,4.93l-5.15,49l-0.64,6.07
		h6.11h30.94h8.64h13.56h3.64l1.42-3.35l1.79-4.21h10.5l0.72,3.25l0.95,4.31h4.42h10.2h6.11h13.01h4.95l0.52-4.93l1.15-10.97h1.48
		l4.77,12.37l1.36,3.52h3.77h14h8.12l-1-2.5c4.31,2.36,10.03,3.55,17.09,3.55c18.51,0,28.66-7.24,30.16-21.52
		c0.6-5.69-0.49-10.23-3.23-13.56h2.18l0.52-4.93c0.63-6.01-0.84-11.19-4.25-14.98C242.37,34.95,235.41,32.58,225.91,32.58
		L225.91,32.58z"/>
	<g>
		<path class="st4" d="M156.61,120.16c-0.63-4.98,1.49-9.24,5.97-12.59c3.72-2.74,8.11-2.64,11.57,0.2c0.24,0.3,0.36,0.81,0.22,1.12
			c-0.27,0.61-0.9,0.71-1.65,0.41c-0.13,0-0.25-0.1-0.5-0.2c-4.73-1.93-7.13-1.42-10.11,2.03c-1.69,2.03-2.62,4.27-2.93,6.7
			c-0.15,0.81,0.09,1.63,0.32,2.44c0.58,1.93,2.2,2.74,4.6,2.34c1.77-0.3,3.29-0.92,4.82-1.73c3.44-1.93,6.27-4.37,8.85-7.11
			c0.91-1.12,0.93-2.03,0.33-3.15c-3.11-6.3-3.83-13-3.41-19.7c0.3-6.8,0.84-13.51,2.89-20.01c0.82-2.74,2.02-5.38,3.97-7.82
			c1.3-1.73,2.97-3.15,5.38-3.86c2.54-0.91,4.67-0.51,6.51,1.12c0.98,1.02,1.71,2.13,2.05,3.35c0.83,2.13,1.02,4.37,1.09,6.6
			c-0.08,13.41-4.17,26.1-11.64,38.08l-0.4,0.81c-2.35,3.55-2.13,4.67,1.7,7.41c3.21,2.24,6.48,2.24,9.94,0
			c9.88-8.02,9.93-4.67,3.25,0.81c-0.51,0.41-1.03,0.81-1.54,1.12c-4.6,2.95-9.38,2.84-13.58-0.2c-1.48-1.02-2.59-2.23-4.07-3.35
			c-1.16,1.12-2.19,2.03-3.22,2.95c-2.19,2.03-4.62,3.86-7.55,5.28c-1.53,0.71-3.05,1.32-4.82,1.62
			C160.25,125.45,157.15,123.72,156.61,120.16z M183.9,105.03c4.47-7.82,7.44-15.95,8.91-24.48c0.74-4.47,1.23-8.94,0.59-13.41
			c-0.21-1.83-0.67-3.55-2.01-5.08c-0.98-0.91-2.24-1.12-3.76-0.61c-1.91,0.81-3.2,2.13-4.24,3.66c-1.83,2.84-3.04,5.99-3.75,9.14
			c-1.41,6.09-2.06,12.19-2.22,18.38c-0.07,2.94,0.23,5.89,0.66,8.73c0.44,2.44,0.88,4.88,2.71,7.52
			C182.58,107.67,183.11,106.35,183.9,105.03z"/>
		<path class="st4" d="M206.87,116.81c-0.12-0.2-0.36-0.51-0.61-0.61c-1.37-0.61-1.97-1.52-1.19-2.74c0.14-0.41,0.02-0.81,0.02-0.91
			c-0.43-3.05,0.39-5.38,2.7-7.31c1.28-1.02,2.81-1.62,4.69-1.62c1.89,0,3.25,0.91,3.46,2.44c0.2,1.93-0.59,3.66-2.14,5.08
			c-1.16,1.02-2.56,1.93-3.72,2.95c-0.9,0.71-0.79,1.52,0.07,2.13c1.85,1.32,3.86,1.73,6.25,1.32c3.92-0.81,7.48-2.23,10.79-4.16
			c0.64-0.41,1.28-0.91,1.92-1.42c0.51-0.3,1.14-0.2,1.38,0.2c0.25,0.2,0.49,0.71,0.35,1.02c-0.15,0.91-1.04,1.52-1.81,2.03
			c-3.06,1.83-6.5,3.35-10.17,4.27C214.19,120.67,209.93,120.26,206.87,116.81z M212.09,109.3c0.65-1.02,1.68-1.93,0.71-3.05
			c-0.61-0.81-2.51-0.1-3.68,1.32c-0.91,1.12-1.56,2.24-1.35,3.55c0.12,0.3,0.61,0.61,0.98,0.91
			C210.28,111.33,211.31,110.31,212.09,109.3z"/>
		<path class="st4" d="M231.04,135.8c-1.96-2.13-2.53-4.57-1.58-7.11c0.68-1.93,1.98-3.55,3.4-5.18c1.81-1.93,1.81-2.03,0.1-4.06
			c-1.22-1.42-2.57-2.84-3.92-4.27c-2.94-3.25-2.23-6.6-0.01-9.85c0.26-0.3,0.77-0.61,1.15-0.81c0.64-0.41,2.01-0.1,2.12,0.51
			c0.47,1.22,0.69,2.54-0.59,3.55c-2.18,1.52-1.59,3.25-0.37,4.77c1.71,2.03,3.67,4.06,5.63,6.2c4.34-2.44,8.42-4.67,12.62-6.91
			c0.64-0.41,1.4-0.81,2.17-1.12c0.51-0.1,1.13-0.1,1.37,0.41c0.12,0.31,0.23,0.81,0.1,1.12c-0.27,0.91-1.29,1.32-2.06,1.83
			c-2.68,1.42-5.23,2.84-7.78,4.27c-1.15,0.61-2.3,1.32-3.32,2.03c-1.15,0.71-1.42,1.52-0.94,2.54c1.07,2.44,1.51,4.88,1.2,7.41
			c-0.17,1.83-0.84,3.55-2.51,4.88C235.65,137.73,232.88,137.73,231.04,135.8z M235.97,125.04c-2.17,1.32-2.83,2.74-3.5,4.16
			c-0.67,1.52-0.2,3.05,0.64,4.47c0.73,0.91,2.24,1.02,2.89,0.1C237.96,130.93,237.65,128.09,235.97,125.04z"/>
		<path class="st4" d="M251.49,123.01c-0.1-0.81-0.34-1.62-0.32-2.44c0.06-7.41,1.12-14.83,2.56-22.14c0.01-0.3,0.02-0.61,0.15-0.81
			c0.14-0.71,0.29-1.42,1.42-1.52c0.88-0.1,1.49,0.71,1.21,1.83c-0.65,5.99-1.43,11.99-2.21,17.98c-0.17,1.83-0.21,3.55-0.39,5.38
			c-0.02,0.61-0.15,1.12-0.42,1.62c-0.14,0.41-0.65,0.71-1.27,0.51C251.98,123.41,251.61,123.21,251.49,123.01z M255.51,87.56
			c0-0.2,0.38-0.3,0.64-0.41c0.38,0.1,0.75,0.1,0.88,0.2c0.86,0.81,0.96,1.83,0.06,2.54c-0.38,0.3-0.89,0.3-1.26,0
			C255.1,89.19,255.12,88.37,255.51,87.56z"/>
		<path class="st4" d="M273.85,169.32c-7.26-6.6-10.09-14.12-7.23-22.85c2.72-8.33,7.31-15.84,14.76-22.04l1.15-0.91
			c0.77-0.71,1.17-1.42,0.69-2.34c-2.16-3.96-4.59-7.72-7.39-11.37c-0.73-0.92-2.37-0.81-3.02,0.1c-0.65,1.01-1.18,2.03-1.84,3.05
			c-1.83,2.74-3.9,5.28-6.97,7.31c-1.28,0.81-2.68,1.42-4.29,0.61c-1.25-0.51-1.59-1.73-1.05-3.35c1.22-3.66,3.94-6.5,7.76-8.73
			l2.29-1.12c2.55-1.22,2.96-2.64,1.76-4.87c-0.73-1.12-1.45-2.23-1.93-3.45c-0.6-1.22-0.44-2.44,0.59-3.56
			c1.29-1.22,3.3-1.22,4.4,0c0.85,1.02,1.2,2.13,1.05,3.15c-0.22,3.66,1.73,6.4,3.92,9.24c2.56,3.25,4.61,6.8,6.79,10.26
			c0.36,0.61,0.72,1.22,1.72,1.62l11.74-6.91c1.15-0.61,2.42-1.12,3.69-1.63c0.38-0.2,1.01-0.1,1.38,0.3
			c0.36,0.51,0.48,1.12-0.04,1.52c-0.77,0.61-1.66,1.12-2.43,1.62c-3.7,2.13-7.4,4.27-10.98,6.5c-2.43,1.52-2.43,1.52-1.35,3.86
			c2.87,6.09,5.1,12.29,6.57,18.79c1.49,5.99,2.21,12.09,1.18,18.28c-0.43,2.23-1.12,4.37-2.55,6.4c-3.64,4.87-10.22,6.3-16.06,3.35
			C276.56,171.35,275.08,170.44,273.85,169.32z M267.6,112.24c0-0.1,0.01-0.31-0.12-0.41l-0.37-0.2c-0.77,0.61-1.66,1.02-2.31,1.73
			c-1.03,1.12-2.45,2.34-2.38,4.47C264.99,116,266.67,114.37,267.6,112.24z M292.56,165.26c1.2-2.74,1.27-5.48,1.36-9.14
			c-0.26-9.65-3.41-19.6-7.82-29.25c-0.12-0.3-0.24-0.51-0.49-0.71c-0.37-0.3-0.87-0.51-1.38-0.1c-0.51,0.3-1.02,0.71-1.54,1.12
			c-6.95,6.4-11.54,13.81-13.5,22.04c-1.7,7.62,1.66,14.12,8.45,19.3C283.44,172.97,289.77,171.45,292.56,165.26z"/>
		<path class="st4" d="M301.5,124.53c-0.94-2.74-0.62-5.48-0.42-8.33c0.31-2.24,0.49-4.47,0.92-6.7c0.15-0.81,0.42-1.63,0.82-2.44
			c0.14-0.51,0.78-0.91,1.53-0.71c0.62,0.2,0.87,0.51,0.85,1.01c-0.16,1.22-0.44,2.44-0.6,3.76c-0.32,2.84-0.52,5.79-0.72,8.73
			c-0.01,0.41-0.15,1.02,0.61,0.91c0.38-0.1,0.89-0.41,1.15-0.81c1.45-2.54,3.02-4.98,5.09-7.31c1.68-1.83,3.48-3.55,5.91-4.88
			c2.42-1.32,5.07-1.52,7.81-0.41c1.87,0.71,2.97,1.83,3.44,3.45c0.34,1.32,0.43,2.74,0.65,4.06c0.65,4.27,4.12,6.4,9.29,5.59
			c3.41-0.41,6.33-1.62,8.89-3.45c1.92-1.22,3.59-2.64,5.5-3.86c0.64-0.51,1.41-0.91,2.17-1.22c0.13-0.1,0.75,0,0.88,0.1
			c0.37,0.31,0.49,0.71,0.6,1.12c0.12,0.2-0.14,0.51-0.4,0.71c-3.6,3.05-7.19,6.09-12.15,7.92c-3.55,1.32-7.22,1.93-11.09,0.92
			c-4-1.12-6.46-3.05-6.75-6.6c-0.09-1.42-0.31-2.74-0.52-4.17c-0.31-2.64-3.94-3.45-6.36-2.33c-1.65,0.81-2.94,1.93-4.23,3.15
			c-2.71,2.64-4.54,5.69-6.38,8.73c-0.78,1.22-1.57,2.44-2.48,3.66c-0.52,0.61-1.28,0.91-2.28,0.81
			C302.35,125.75,301.73,125.24,301.5,124.53z"/>
		<path class="st4" d="M356.05,135.8c-1.96-2.13-2.53-4.57-1.58-7.11c0.68-1.93,1.98-3.55,3.4-5.18c1.81-1.93,1.81-2.03,0.1-4.06
			c-1.22-1.42-2.57-2.84-3.92-4.27c-2.94-3.25-2.23-6.6-0.01-9.85c0.26-0.3,0.77-0.61,1.15-0.81c0.64-0.41,2.01-0.1,2.12,0.51
			c0.47,1.22,0.69,2.54-0.59,3.55c-2.18,1.52-1.59,3.25-0.37,4.77c1.71,2.03,3.67,4.06,5.63,6.2c4.34-2.44,8.42-4.67,12.62-6.91
			c0.64-0.41,1.4-0.81,2.17-1.12c0.51-0.1,1.13-0.1,1.37,0.41c0.12,0.31,0.23,0.81,0.1,1.12c-0.27,0.91-1.29,1.32-2.06,1.83
			c-2.68,1.42-5.23,2.84-7.78,4.27c-1.15,0.61-2.3,1.32-3.32,2.03c-1.15,0.71-1.42,1.52-0.94,2.54c1.07,2.44,1.51,4.88,1.2,7.41
			c-0.17,1.83-0.84,3.55-2.51,4.88C360.65,137.73,357.89,137.73,356.05,135.8z M360.97,125.04c-2.17,1.32-2.83,2.74-3.5,4.16
			c-0.67,1.52-0.2,3.05,0.64,4.47c0.73,0.91,2.24,1.02,2.89,0.1C362.96,130.93,362.66,128.09,360.97,125.04z"/>
		<path class="st4" d="M404.21,135.8c-1.96-2.13-2.53-4.57-1.58-7.11c0.68-1.93,1.98-3.55,3.4-5.18c1.81-1.93,1.81-2.03,0.1-4.06
			c-1.22-1.42-2.57-2.84-3.92-4.27c-2.94-3.25-2.23-6.6-0.01-9.85c0.26-0.3,0.77-0.61,1.15-0.81c0.64-0.41,2.01-0.1,2.12,0.51
			c0.47,1.22,0.69,2.54-0.59,3.55c-2.18,1.52-1.59,3.25-0.37,4.77c1.71,2.03,3.67,4.06,5.63,6.2c4.34-2.44,8.42-4.67,12.62-6.91
			c0.64-0.41,1.4-0.81,2.17-1.12c0.51-0.1,1.13-0.1,1.37,0.41c0.12,0.31,0.23,0.81,0.1,1.12c-0.27,0.91-1.29,1.32-2.06,1.83
			c-2.68,1.42-5.23,2.84-7.78,4.27c-1.15,0.61-2.3,1.32-3.32,2.03c-1.15,0.71-1.42,1.52-0.94,2.54c1.07,2.44,1.51,4.88,1.2,7.41
			c-0.17,1.83-0.84,3.55-2.51,4.88C408.82,137.73,406.05,137.73,404.21,135.8z M409.14,125.04c-2.17,1.32-2.83,2.74-3.5,4.16
			c-0.67,1.52-0.2,3.05,0.64,4.47c0.73,0.91,2.24,1.02,2.89,0.1C411.13,130.93,410.82,128.09,409.14,125.04z"/>
		<path class="st4" d="M427.48,125.65c-0.6-1.02-0.95-2.13-1.3-3.15c-0.34-1.63-0.8-3.35-0.88-4.98c-0.26-4.87-0.39-9.75-0.55-13.3
			l0.39-15.54c0.05-1.93-0.45-2.13-2.71-2.13c-1.39,0.1-2.77,0.3-4.16,0.41c-0.75,0-1.39,0.1-2.14,0.1c-0.88,0-1.62-0.51-1.6-1.32
			c-0.11-0.81,0.53-1.22,1.42-1.52c0.25-0.1,0.63-0.1,1.01-0.2c0.5,0,1.01-0.1,1.51-0.1c2.15-0.41,4.89,0.41,6.44-1.12
			c1.29-1.22,0.58-3.25,0.88-4.87c0.45-2.74,0.77-5.59,1.21-8.33c0.15-0.91,0.43-2.03,1.94-2.23c1.01-0.2,1.61,1.12,1.19,2.74
			c-1.1,3.66-1.32,7.41-1.67,11.27c-0.03,1.32,0.58,1.83,2.22,1.73c4.29-0.41,8.57-0.92,12.86-1.32c1.64-0.1,3.4-0.3,5.16-0.3
			c0.76-0.1,1.25,0.3,1.36,0.91c-0.02,0.61-0.28,1.12-0.92,1.42c-1.52,0.61-3.04,0.81-4.55,0.91l-13.87,1.52
			c-2.14,0.2-2.4,0.51-2.57,2.13c-0.38,10.16-0.76,20.31,0.25,30.47c0.2,2.13,0.9,4.16,1.86,6.09c0.6,1.12,0.2,1.93-0.56,2.13
			C428.32,127.27,427.84,126.36,427.48,125.65z"/>
		<path class="st4" d="M438.48,123.21c-1.25-5.38-0.49-10.56,2.28-15.64c0.26-0.41,0.9-0.91,1.65-0.51c0.37,0.2,0.86,0.71,0.73,1.02
			c-0.15,1.12-0.56,2.13-0.96,3.25c-1.22,3.45-1.8,6.8-1.01,10.36c1,5.18,6.26,6.09,10.79,1.12c2.19-2.23,3.89-4.67,5.34-7.21
			c1.97-3.15,3.81-6.4,5.65-9.55c0.66-1.12,1.44-2.23,2.59-3.15c1.15-0.81,2.91-0.71,3.51,0.41c0.61,0.81,0.83,1.83,1.32,2.64
			c1.07,2.44,2.91,4.47,5.38,6.09c3.83,2.54,8.22,3.25,12.92,1.32c1.4-0.51,2.79-1.12,4.31-1.52c0.25-0.1,0.87,0.31,1.12,0.61
			c0.12,0.1,0.11,0.51-0.02,0.71c-0.14,0.41-0.52,0.71-0.91,1.01c-6.38,3.76-13.55,3.66-19.61-0.41c-2.23-1.52-3.94-3.35-5.27-5.48
			c-0.49-0.71-0.59-1.62-1.71-2.03c-1.41,0.91-1.82,2.33-2.6,3.55c-1.84,3.05-3.55,6.09-5.38,9.14c-1.44,2.23-3.13,4.37-5.19,6.3
			C448.11,130.42,440.09,129.2,438.48,123.21z"/>
		<path class="st4" d="M494.81,179.17c-1.47-1.52-2.18-3.25-2.64-4.98c-0.81-2.74-1.5-5.48-1.93-8.23
			c-0.53-3.86-0.81-7.82-0.97-11.68c-0.45-27.32,5.47-62.76,13.69-89.98c1.65-5.79,3.81-11.38,6.58-16.86
			c1.18-2.03,2.49-4.06,3.8-5.99c0.78-1.12,1.81-2.13,3.09-2.84c2.17-1.22,4.67-0.71,5.5,1.22c0.83,1.93,1.04,3.86,0.99,5.79
			c-0.14,5.48-1.28,10.87-2.8,16.25c-2.34,8.02-5.68,15.95-10.02,23.46c-3.55,6.09-6.97,12.29-10.89,18.28
			c-2.35,3.45-3.94,6.8-4.16,10.66c-0.01,0.41-0.15,0.81-0.16,1.22c0.1,1.01-1.19,2.33,0.3,3.05c1.25,0.51,2.28-0.61,3.17-1.12
			c8.17-4.98,14.99-10.97,21.31-17.47c1.42-1.42,1.59-3.15,1.88-4.77c1-4.98,2.26-9.85,3.89-14.83c1.09-3.35,2.31-6.7,4.15-9.95
			c0.79-1.42,1.7-2.74,3.11-3.86c2.05-1.42,4.43-1.01,5.64,0.92c0.6,1.12,0.7,2.33,0.79,3.66c-0.07,2.64-0.89,5.28-1.96,7.82
			c-2.42,6.2-6.08,11.99-10.49,17.37c-1.94,2.33-3.13,4.67-3.46,7.41c-0.48,4.16-1.21,8.33-1.69,12.49
			c-0.16,1.42,0.95,2.13,2.6,1.52c2.16-0.71,4.06-1.62,6.09-2.34l9.14-3.35c0.63-0.2,1.39-0.1,1.75,0.51
			c0.24,0.51-0.28,1.01-0.91,1.32c-1.02,0.51-2.16,0.91-3.3,1.32c-2.16,0.92-4.44,1.73-6.6,2.54c-1.91,0.81-2.04,1.22-0.69,2.44
			c2.59,2.24,3.65,4.98,3.83,7.92c0.49,5.59-1.28,10.87-4.55,15.84c-0.66,1.12-1.69,2.13-2.72,3.05c-2.69,2.13-5.7,1.73-7.02-1.02
			c-0.96-1.73-1.42-3.66-1.49-5.69l-0.14-9.65c-0.1-0.91-0.08-1.93-0.05-2.95c0.03-1.02-0.72-1.22-1.85-1.52
			c-1.63-0.3-3.02,0-4.29,0.71c-0.51,0.2-1.14,0.2-1.38-0.3c-0.12-0.41-0.1-0.91,0.16-1.22c0.64-0.61,1.41-1.22,2.31-1.73
			c2.42-1.22,3.11-3.66,5.41-5.08c0.26-0.2,0.4-0.81,0.41-1.22c0.47-3.76,0.94-7.51,1.29-11.27c0.13-0.2-0.24-0.41-0.6-1.12
			l-5.66,4.98c-4.5,3.76-9.11,7.31-14.47,10.36c-1.02,0.61-1.41,1.22-0.56,2.13c5.5,6.4,7.45,13.91,8.9,21.53
			c1.21,6.91,1.16,13.91,0.61,20.92c-0.33,3.35-1.17,6.7-2.51,9.85c-0.67,1.73-1.72,3.45-3.39,4.77
			C499.54,181.3,496.77,181.2,494.81,179.17z M500.13,177.55c1.03-1.02,1.69-2.13,2.22-3.35c1.06-2.23,1.75-4.57,2.06-6.91
			c1.27-10.46,0.9-20.92-2.24-31.08c-0.81-2.74-1.88-5.38-3.33-7.82c-0.84-1.42-1.82-2.74-2.67-4.06c-0.37-0.41-0.85-1.12-1.61-0.91
			c-1.01,0.1-0.91,1.02-1.05,1.62c-0.15,1.02-0.3,1.93-0.32,2.95l-1.15,15.74c0.15,4.27,0.14,9.34,0.4,14.32
			c0.25,5.18,0.88,10.26,2.51,15.23c0.46,1.52,0.93,2.95,2.03,4.27C497.85,178.46,499.1,178.46,500.13,177.55z M500.26,96.7
			l6.44-11.07c4.34-7.51,7.93-15.33,10.27-23.36c1.65-5.48,3.04-10.97,3.06-16.66c0.04-1.42,0.07-2.74-0.65-4.06
			c-0.23-0.71-1.36-1.02-2-0.41c-1.67,1.32-2.59,2.95-3.64,4.57c-2.63,4.47-4.5,9.14-6.26,13.81c-4.34,12.49-6.79,25.19-9.37,37.98
			c-0.13,0.3,0.11,0.71,0.22,1.12C499.6,98.33,499.87,97.41,500.26,96.7z M526.03,142.71c2.61-3.76,3.97-7.72,4.3-11.17
			c0.09-3.55-0.48-6.09-1.57-7.72c-1.09-1.73-2.69-2.95-5.21-2.84c-1.13,0-2.02,0.51-2.3,1.42c-0.14,0.41-0.27,0.81-0.28,1.22
			c-0.39,5.59-0.4,11.17-0.04,16.76c0.09,1.52,0.43,3.05,1.15,4.47c0.36,0.51,1.37,0.61,1.76,0.2
			C524.61,144.34,525.5,143.62,526.03,142.71z M535.67,73.95c0.15-0.81,0.17-1.73,0.31-2.54c0.04-1.52-0.44-2.64-1.07-2.44
			c-1.14,0.2-1.53,1.02-1.93,1.83c-3.81,6.5-5.74,13.41-6.8,20.52C530.71,86.04,533.88,80.25,535.67,73.95z"/>
	</g>
</g>
</svg>
